<?xml version="1.0" encoding="UTF-8"?>
<svg width="16px" height="16px" viewBox="0 0 16 16" version="1.1" xmlns="http://www.w3.org/2000/svg" xmlns:xlink="http://www.w3.org/1999/xlink">
    <title>Element/Icon/Ban</title>
    <g id="Element/Icon/Ban" stroke="none" stroke-width="1">
        <path d="M14.4441285,5.28843439 C14.0734517,4.42260674 13.5766727,3.67665603 12.9536956,3.0508696 C12.3311017,2.42501933 11.5865556,1.92664406 10.7206322,1.55599921 C9.85502801,1.18535435 8.94792182,1 8.00011174,1 C7.05220588,1 6.14525931,1.18545013 5.2793678,1.55599921 C4.41344437,1.92664406 3.66905797,2.42492355 3.04627246,3.0508696 C2.42345502,3.67665603 1.92661214,4.42260674 1.55596728,5.28843439 C1.18535435,6.1543259 1,7.06433723 1,8.01824492 C1,8.97218453 1.18535435,9.8836644 1.55596728,10.7525249 C1.92670791,11.6216089 2.42342309,12.3687727 3.04627246,12.9947826 C3.66905797,13.6206648 4.41344437,14.119072 5.2793678,14.4894295 C6.14525931,14.860234 7.05217395,15.0456203 8.00011174,15.0456203 C8.94804952,15.0456203 9.85502801,14.860234 10.7206322,14.4894295 C11.5865556,14.1188804 12.3311017,13.6206648 12.9536956,12.9947826 C13.5766727,12.3687727 14.0734198,11.6215769 14.4441285,10.7525249 C14.8148053,9.88363247 15,8.97215261 15,8.01824492 C15,7.06433723 14.8148053,6.1543259 14.4441285,5.28843439 Z M3.85287994,10.7433306 C3.31207686,9.91118342 3.04167531,9.00241715 3.04180297,8.01811722 C3.04180297,7.11889641 3.26364721,6.28642998 3.7072079,5.52074986 C4.15067281,4.75513359 4.75235615,4.15057704 5.51181097,3.70685672 C6.27132964,3.26329603 7.10076323,3.04157954 8.00011174,3.04157954 C9.00289602,3.04157954 9.91405664,3.31807869 10.7345194,3.87101313 L3.85287994,10.7433306 Z M12.5662265,9.95520748 C12.3048596,10.5719273 11.9526672,11.1021633 11.5091065,11.5457879 C11.0653543,11.9893805 10.5383107,12.3433288 9.92759268,12.6074092 C9.31687467,12.8716493 8.67426397,13.0039769 7.99992019,13.0039769 C7.02775162,13.0039769 6.12540219,12.7337031 5.29290384,12.1926765 L12.1654129,5.32936176 C12.6942761,6.14359923 12.9583566,7.0399149 12.9583566,8.01814915 C12.958197,8.6927164 12.8275295,9.33829609 12.5662265,9.95520748 Z"></path>
    </g>
</svg>