<?xml version="1.0" encoding="UTF-8"?>
<svg width="16px" height="16px" viewBox="0 0 16 16" version="1.1" xmlns="http://www.w3.org/2000/svg" xmlns:xlink="http://www.w3.org/1999/xlink">
    <title>Element/Icon/Calendar</title>
    <g id="Element/Icon/Calendar" stroke="none" stroke-width="1">
        <path d="M2.27272727,5.09090909 L2.27272727,2.54545455 L3.54545455,2.54545455 L3.54545455,3.81818182 L4.81818182,3.81818182 L4.81818182,2.54545455 L7.36363636,2.54545455 L7.36363636,3.81818182 L8.63636364,3.81818182 L8.63636364,2.54545455 L11.1818182,2.54545455 L11.1818182,3.81818182 L12.4545455,3.81818182 L12.4545455,2.54545455 L13.7272727,2.54545455 L13.7272727,5.09090909 L2.27272727,5.09090909 Z M2.27272727,12.7272727 L13.7272727,12.7272727 L13.7272727,6.36363636 L2.27272727,6.36363636 L2.27272727,12.7272727 Z M12.4545455,1.27272727 L12.4545455,0 L11.1818182,0 L11.1818182,1.27272727 L8.63636364,1.27272727 L8.63636364,0 L7.36363636,0 L7.36363636,1.27272727 L4.81818182,1.27272727 L4.81818182,0 L3.54545455,0 L3.54545455,1.27272727 L1,1.27272727 L1,14 L15,14 L15,1.27272727 L12.4545455,1.27272727 Z"></path>
    </g>
</svg>