<?xml version="1.0" encoding="UTF-8"?>
<svg width="16px" height="16px" viewBox="0 0 16 16" version="1.1" xmlns="http://www.w3.org/2000/svg" xmlns:xlink="http://www.w3.org/1999/xlink">
    <title>Element/Icon/Fingerprint</title>
    <g id="Element/Icon/Fingerprint" stroke="none" stroke-width="1">
        <path d="M4.77578999,7.92228166 C4.77578999,6.18730615 6.18730615,4.77578999 7.92228166,4.77578999 C9.65725716,4.77578999 11.0687733,6.18730615 11.0687733,7.92228166 L12.32737,7.92228166 C12.32737,5.49319009 10.3507439,3.51719333 7.92228166,3.51719333 C5.49381939,3.51719333 3.51719333,5.49319009 3.51719333,7.92228166 C3.51719333,10.8264935 5.08414618,13.53814 7.60700319,15 L8.23756012,13.9106846 C6.10235088,12.6734841 4.77578999,10.3790623 4.77578999,7.92228166 M14.8445633,7.92228166 C14.8445633,9.65725716 13.4330472,11.0687733 11.6980717,11.0687733 C9.96309615,11.0687733 8.55157999,9.65725716 8.55157999,7.92228166 C8.55157999,7.57553827 8.26965434,7.29298332 7.92228166,7.29298332 C7.57490898,7.29298332 7.29298332,7.57553827 7.29298332,7.92228166 C7.29298332,10.3513732 9.26960939,12.32737 11.6980717,12.32737 L11.6980717,13.5859666 C8.57486403,13.5859666 6.03438666,11.04486 6.03438666,7.92228166 C6.03438666,6.88142221 6.88142221,6.03438666 7.92228166,6.03438666 C8.9631411,6.03438666 9.81017665,6.88142221 9.81017665,7.92228166 C9.81017665,8.9631411 10.6572122,9.81017665 11.6980717,9.81017665 C12.7389311,9.81017665 13.5859666,8.9631411 13.5859666,7.92228166 C13.5859666,4.79970333 11.0454893,2.25859666 7.92228166,2.25859666 C4.79907403,2.25859666 2.25859666,4.79970333 2.25859666,7.92228166 C2.25859666,9.55027644 2.68714883,11.1619095 3.49705578,12.5834944 L2.40270598,13.2064998 C1.48518901,11.595496 1,9.76801366 1,7.92228166 C1,4.10558727 4.10558727,1 7.92228166,1 C11.738976,1 14.8445633,4.10558727 14.8445633,7.92228166"></path>
    </g>
</svg>