<svg width="20px" height="19px" viewBox="0 0 20 19" version="1.1" xmlns="http://www.w3.org/2000/svg" >
    <path d="M18.9285714,19 L1.07142857,19 C0.464285714,19 0,18.5243902 0,17.902439 L0,5.09756098 C0,4.47560976 0.464285714,4 1.07142857,4 L18.9285714,4 C19.5357143,4 20,4.47560976 20,5.09756098 L20,17.902439 C20,18.5243902 19.5357143,19 18.9285714,19 Z M1.34615385,5.26829232 C1.13846154,5.26829232 1,5.40450853 1,5.60883286 L1,17.5277518 C1,17.7320761 1.13846154,17.8682923 1.34615385,17.8682923 L18.6538462,17.8682923 C18.8615385,17.8682923 19,17.7320761 19,17.5277518 L19,5.60883286 C19,5.40450853 18.8615385,5.26829232 18.6538462,5.26829232 L1.34615385,5.26829232 Z" id="Shape"></path>
    <path d="M15,4 L13.75,4 C13.75,2.53333333 12.625,1.33333333 11.25,1.33333333 L8.75,1.33333333 C7.375,1.33333333 6.25,2.53333333 6.25,4 L5,4 C5,1.8 6.6875,0 8.75,0 L11.25,0 C13.3125,0 15,1.8 15,4 Z" id="Path"></path>
    <rect id="Rectangle" x="0" y="10" width="9" height="2"></rect>
    <rect id="Rectangle" x="11" y="10" width="9" height="2"></rect>
    <path d="M12,13 L8,13 L8,9 L12,9 L12,13 Z M8.98765432,12 L11.0123457,12 L11.0123457,10 L8.98765432,10 L8.98765432,12 Z" id="Shape"></path>
</svg>