<svg width="15px" height="19px" viewBox="0 0 15 19" version="1.1" xmlns="http://www.w3.org/2000/svg">
    <path d="M14,4 L2,4 C1.63573235,4 1.29418643,3.90262301 1,3.73246242 L1,17 C1,17.5524608 1.44774538,18 2,18 L14,18 L14,4 Z M14.8535534,3.14644661 C14.9440356,3.23692881 15,3.36192881 15,3.5 L15,18.5 C15,18.7761424 14.7761424,19 14.5,19 L2,19 C0.89556369,19 0,18.1048486 0,17 L0,2 C0,0.89515137 0.89556369,0 2,0 L13.5,0 C13.7761424,0 14,0.22385763 14,0.5 L14,3 L14.5,3 C14.6380712,3 14.7630712,3.05596441 14.8535534,3.14644661 Z M6.5,8 C6.2238576,8 6,7.77614237 6,7.5 C6,7.22385763 6.2238576,7 6.5,7 L11.5,7 C11.7761424,7 12,7.22385763 12,7.5 C12,7.77614237 11.7761424,8 11.5,8 L6.5,8 Z M2.5,7.5 C2.5,6.94776215 2.94745292,6.5 3.5,6.5 C4.05254708,6.5 4.5,6.94776215 4.5,7.5 C4.5,8.0522379 4.05254708,8.5 3.5,8.5 C2.94745292,8.5 2.5,8.0522379 2.5,7.5 Z M6.5,11 C6.2238576,11 6,10.7761424 6,10.5 C6,10.2238576 6.2238576,10 6.5,10 L11.5,10 C11.7761424,10 12,10.2238576 12,10.5 C12,10.7761424 11.7761424,11 11.5,11 L6.5,11 Z M2.5,10.5 C2.5,9.9477621 2.94745292,9.5 3.5,9.5 C4.05254708,9.5 4.5,9.9477621 4.5,10.5 C4.5,11.0522379 4.05254708,11.5 3.5,11.5 C2.94745292,11.5 2.5,11.0522379 2.5,10.5 Z M6.5,14 C6.2238576,14 6,13.7761424 6,13.5 C6,13.2238576 6.2238576,13 6.5,13 L11.5,13 C11.7761424,13 12,13.2238576 12,13.5 C12,13.7761424 11.7761424,14 11.5,14 L6.5,14 Z M2.5,13.5 C2.5,12.9477621 2.94745292,12.5 3.5,12.5 C4.05254708,12.5 4.5,12.9477621 4.5,13.5 C4.5,14.0522379 4.05254708,14.5 3.5,14.5 C2.94745292,14.5 2.5,14.0522379 2.5,13.5 Z M13,3 L13,1 L2,1 C1.44774538,1 1,1.44753924 1,2 C1,2.55246076 1.44774538,3 2,3 L13,3 Z" id="Shape"></path>
</svg>